<svg width="116" height="46" viewBox="0 0 116 46" fill="none" xmlns="http://www.w3.org/2000/svg">
<path d="M102.58 23.2311L102.931 22.8776L102.578 22.5254L87.5893 7.53628L93.7634 1.47047L115.172 22.879L93.7665 44.2844L87.7056 38.2234L102.58 23.2311ZM78.4132 23.2311L78.7639 22.8776L78.4118 22.5254L63.4226 7.53628L69.5967 1.47046L91.0053 22.879L69.5999 44.2844L63.5389 38.2234L78.4132 23.2311ZM52.458 7.65257L37.4685 22.524L37.1122 22.8776L37.4671 23.2325L52.4594 38.2248L46.279 44.4052L24.7538 22.8799L46.2781 1.47262L52.458 7.65257ZM28.2914 7.65257L13.3019 22.524L12.9455 22.8776L13.3005 23.2325L28.2928 38.2248L22.1124 44.4052L0.5871 22.8799L22.1114 1.47262L28.2914 7.65257Z" fill="#1C1B1F" stroke="black"/>
</svg>
