<svg width="24" height="24" viewBox="0 0 24 24" fill="none" xmlns="http://www.w3.org/2000/svg">
<path d="M10.503 10.05C10.9343 10.05 11.3 9.89903 11.6 9.59706C11.9 9.29511 12.05 8.92845 12.05 8.49706C12.05 8.0657 11.899 7.70001 11.597 7.40001C11.2951 7.10001 10.9284 6.95001 10.4971 6.95001C10.0657 6.95001 9.7 7.101 9.4 7.40296C9.1 7.70491 8.95 8.07158 8.95 8.50296C8.95 8.93433 9.10098 9.30001 9.40295 9.60001C9.7049 9.90001 10.0716 10.05 10.503 10.05ZM8.50295 15.05C8.93432 15.05 9.3 14.899 9.6 14.5971C9.9 14.2951 10.05 13.9284 10.05 13.4971C10.05 13.0657 9.89902 12.7 9.59705 12.4C9.2951 12.1 8.92843 11.95 8.49705 11.95C8.06568 11.95 7.7 12.101 7.4 12.403C7.1 12.7049 6.95 13.0716 6.95 13.503C6.95 13.9343 7.10098 14.3 7.40295 14.6C7.7049 14.9 8.07157 15.05 8.50295 15.05ZM15 16C15.2833 16 15.5208 15.9042 15.7125 15.7125C15.9042 15.5208 16 15.2833 16 15C16 14.7167 15.9042 14.4792 15.7125 14.2875C15.5208 14.0958 15.2833 14 15 14C14.7167 14 14.4792 14.0958 14.2875 14.2875C14.0958 14.4792 14 14.7167 14 15C14 15.2833 14.0958 15.5208 14.2875 15.7125C14.4792 15.9042 14.7167 16 15 16ZM12 22C10.6333 22 9.34167 21.7375 8.125 21.2125C6.90833 20.6875 5.84583 19.9708 4.9375 19.0625C4.02917 18.1542 3.3125 17.0917 2.7875 15.875C2.2625 14.6583 2 13.3667 2 12C2 10.6333 2.2625 9.34168 2.7875 8.12501C3.3125 6.90835 4.025 5.84168 4.925 4.92501C5.825 4.00835 6.875 3.28335 8.075 2.75001C9.275 2.21668 10.55 1.95001 11.9 1.95001C12.4333 1.95001 12.8625 2.07501 13.1875 2.32501C13.5125 2.57501 13.7167 2.96668 13.8 3.50001C13.9333 4.46668 14.35 5.28751 15.05 5.96251C15.75 6.63751 16.575 7.04168 17.525 7.17501C17.875 7.22501 18.15 7.35835 18.35 7.57501C18.55 7.79168 18.6917 8.10001 18.775 8.50001C18.8583 9.01668 19.075 9.47918 19.425 9.88751C19.775 10.2958 20.1917 10.6167 20.675 10.85C21.1917 11.1 21.55 11.4 21.75 11.75C21.95 12.1 22.0167 12.5417 21.95 13.075C21.8333 14.3083 21.4917 15.4667 20.925 16.55C20.3583 17.6333 19.6292 18.5792 18.7375 19.3875C17.8458 20.1958 16.8259 20.8333 15.6776 21.3C14.5293 21.7667 13.3035 22 12 22ZM12 20.5C14.3667 20.5 16.3333 19.7208 17.9 18.1625C19.4667 16.6042 20.3417 14.6833 20.525 12.4C19.625 12.0667 18.8958 11.5708 18.3375 10.9125C17.7792 10.2542 17.4333 9.50001 17.3 8.65001C15.95 8.46668 14.8125 7.88335 13.8875 6.90001C12.9625 5.91668 12.4333 4.77501 12.3 3.47501C11.0667 3.42501 9.9125 3.62501 8.8375 4.07501C7.7625 4.52501 6.82917 5.14168 6.0375 5.92501C5.24583 6.70835 4.625 7.62918 4.175 8.68751C3.725 9.74585 3.5 10.85 3.5 12C3.5 14.3667 4.325 16.375 5.975 18.025C7.625 19.675 9.63333 20.5 12 20.5Z" fill="black"/>
</svg>
