<svg width="48" height="48" viewBox="0 0 48 48" fill="none" xmlns="http://www.w3.org/2000/svg">
<path d="M19.5 31.65C19.2 31.35 19.05 30.9875 19.05 30.5625C19.05 30.1375 19.2 29.7833 19.5 29.5L23.5 25.5H7.5C7.075 25.5 6.71875 25.3554 6.43125 25.0663C6.14375 24.7771 6 24.4187 6 23.9913C6 23.5638 6.14375 23.2083 6.43125 22.925C6.71875 22.6417 7.075 22.5 7.5 22.5H23.4L19.35 18.45C19.0833 18.1833 18.95 17.8426 18.95 17.4277C18.95 17.0127 19.1036 16.6544 19.4107 16.3527C19.6923 16.0509 20.0442 15.9 20.4665 15.9C20.8888 15.9 21.25 16.05 21.55 16.35L28.2 23C28.3667 23.1667 28.4833 23.3356 28.55 23.5067C28.6167 23.6778 28.65 23.8611 28.65 24.0567C28.65 24.2522 28.6167 24.4333 28.55 24.6C28.4833 24.7667 28.3667 24.9333 28.2 25.1L21.6 31.7C21.3333 31.9667 20.9917 32.1 20.575 32.1C20.1583 32.1 19.8 31.95 19.5 31.65ZM25.95 42C25.525 42 25.1688 41.8554 24.8813 41.5662C24.5938 41.2771 24.45 40.9187 24.45 40.4913C24.45 40.0638 24.5938 39.7083 24.8813 39.425C25.1688 39.1417 25.525 39 25.95 39H39V9H25.95C25.525 9 25.1688 8.85542 24.8813 8.56625C24.5938 8.27705 24.45 7.91872 24.45 7.49125C24.45 7.06375 24.5938 6.70833 24.8813 6.425C25.1688 6.14167 25.525 6 25.95 6H39C39.8 6 40.5 6.3 41.1 6.9C41.7 7.5 42 8.2 42 9V39C42 39.8 41.7 40.5 41.1 41.1C40.5 41.7 39.8 42 39 42H25.95Z" fill="black"/>
</svg>
