<svg width="48" height="48" viewBox="0 0 48 48" fill="none" xmlns="http://www.w3.org/2000/svg">
<path d="M7.39999 40.95C7.09999 40.65 6.94999 40.3 6.94999 39.9C6.94999 39.5 7.09999 39.15 7.39999 38.85L27.35 18.9C26.6167 17.3 26.45 15.6417 26.85 13.925C27.25 12.2083 28.2 10.6 29.7 9.1C31.2 7.63333 33.0167 6.69166 35.15 6.275C37.2833 5.85833 39.0333 6.33333 40.4 7.7C41.8 9.1 42.275 10.85 41.825 12.95C41.375 15.05 40.3667 16.9 38.8 18.5C37.4333 19.9 35.9083 20.8167 34.225 21.25C32.5417 21.6833 30.9667 21.5833 29.5 20.95L26.15 24.3L40.7 38.85C41 39.15 41.15 39.5 41.15 39.9C41.15 40.3 41 40.65 40.7 40.95C40.4 41.25 40.05 41.4 39.65 41.4C39.25 41.4 38.9 41.25 38.6 40.95L24.05 26.4L9.49999 40.95C9.19999 41.25 8.84999 41.4 8.44999 41.4C8.04999 41.4 7.69999 41.25 7.39999 40.95ZM14.7 24.45L8.74999 18.5C7.24999 17 6.39165 15.275 6.17499 13.325C5.95832 11.375 6.33332 9.53333 7.29999 7.8C7.56665 7.36666 7.94999 7.13333 8.44999 7.1C8.94999 7.06666 9.38332 7.23333 9.74999 7.6L20.65 18.5L14.7 24.45Z" fill="black"/>
</svg>
